<!-- Generated by IcoMoon.io -->
<svg version="1.1" xmlns="http://www.w3.org/2000/svg" width="32" height="32" viewBox="0 0 32 32">
<title>candy-svgrepo-com</title>
<path fill="#6c0066" d="M31.975 9.677c-0.066-0.239-0.256-0.425-0.497-0.485l-1.61-0.403c-0.268-0.067-0.477-0.275-0.544-0.544l-0.193-0.774c-0.191-0.763-0.784-1.356-1.547-1.547l-0.773-0.193c-0.268-0.067-0.477-0.275-0.544-0.544l-0.193-0.773c-0.191-0.763-0.784-1.356-1.547-1.547l-0.773-0.193c-0.268-0.067-0.477-0.275-0.544-0.544l-0.402-1.609c-0.060-0.241-0.245-0.431-0.485-0.497s-0.496 0.001-0.672 0.177c-1.346 1.346-2.164 3.237-2.246 5.189-0.045 1.075 0.127 2.101 0.498 3.028-1.121-0.517-2.349-0.789-3.62-0.789-2.311 0-4.484 0.9-6.118 2.534-2.63 2.63-3.209 6.545-1.739 9.742-0.929-0.372-1.958-0.545-3.035-0.5-1.952 0.082-3.844 0.9-5.189 2.246-0.176 0.176-0.243 0.432-0.177 0.671s0.256 0.425 0.497 0.485l1.61 0.403c0.268 0.067 0.477 0.275 0.544 0.544l0.193 0.774c0.191 0.763 0.784 1.356 1.547 1.547l0.773 0.193c0.268 0.067 0.477 0.275 0.544 0.544l0.193 0.773c0.191 0.763 0.784 1.356 1.547 1.547l0.773 0.193c0.268 0.067 0.477 0.275 0.544 0.544l0.402 1.609c0.060 0.241 0.245 0.431 0.485 0.497 0.061 0.017 0.123 0.025 0.184 0.025 0.18 0 0.356-0.071 0.488-0.202 1.346-1.346 2.164-3.237 2.246-5.189 0.039-0.942-0.088-1.848-0.37-2.682 1.235 0.658 2.62 1.007 4.059 1.007 2.311 0 4.484-0.9 6.118-2.534s2.534-3.807 2.534-6.118c0-1.438-0.349-2.822-1.006-4.057 0.735 0.248 1.524 0.376 2.346 0.376 0.111 0 0.222-0.002 0.334-0.007 1.952-0.082 3.844-0.9 5.189-2.246 0.176-0.176 0.243-0.432 0.177-0.671zM17.463 9.108c-0.565 0.061-1.123 0.188-1.657 0.382-1.822 0.664-3.121 2.015-3.657 3.8-0.544 1.752 0.139 3.623 1.624 4.448 0.003 0.002 0.005 0.003 0.008 0.005 1.022 0.545 1.763 0.218 2.204-0.152 0.186-0.156 0.35-0.345 0.499-0.549 0.489 0.378 0.563 0.703 0.29 1.218-0.565 1.011-1.92 1.485-3.159 1.1-1.449-0.435-2.545-1.493-3.086-2.979-0.588-1.615-0.447-3.474 0.354-4.97 0.083-0.092 0.17-0.183 0.259-0.272 1.418-1.418 3.28-2.127 5.143-2.127 0.395 0 0.79 0.032 1.18 0.096zM9.109 15.102c0.061 0.565 0.188 1.122 0.382 1.657 0.664 1.822 2.015 3.121 3.8 3.657 1.752 0.544 3.623-0.139 4.448-1.624 0.002-0.003 0.003-0.006 0.005-0.008 0.545-1.022 0.218-1.763-0.152-2.204-0.153-0.182-0.337-0.343-0.536-0.489 0.013-0.024 0.026-0.049 0.039-0.073 0.037-0.068 0.073-0.136 0.111-0.205 0.013-0.024 0.053-0.098 0.219-0.138 0.29-0.070 0.725 0.027 1.019 0.226 0.658 0.509 1.037 1.335 1.040 2.271-0.086 1.771-1.415 3.364-3.311 3.969-1.59 0.446-3.318 0.261-4.811-0.502-0.075-0.069-0.149-0.14-0.222-0.212-1.718-1.718-2.395-4.090-2.031-6.323zM10.195 29.803l-0.067-0.269c-0.191-0.763-0.784-1.356-1.547-1.547l-0.773-0.193c-0.268-0.067-0.477-0.275-0.544-0.544l-0.193-0.773c-0.191-0.763-0.784-1.356-1.547-1.547l-0.773-0.193c-0.268-0.067-0.477-0.275-0.544-0.544l-0.193-0.774c-0.191-0.763-0.784-1.356-1.547-1.547l-0.27-0.068c2.349-1.511 5.576-1.359 7.467 0.531s2.043 5.118 0.532 7.467zM15.080 23.452c0.473-0.040 0.942-0.124 1.401-0.253 0.006-0.002 0.011-0.003 0.017-0.005 2.344-0.743 3.987-2.747 4.089-4.985 0-0.008 0.001-0.017 0.001-0.025 0-1.292-0.541-2.447-1.484-3.168-0.007-0.005-0.014-0.010-0.021-0.015-0.559-0.387-1.31-0.543-1.914-0.398-0.422 0.101-0.745 0.339-0.931 0.685-0.037 0.068-0.075 0.138-0.113 0.209-0.004 0.008-0.009 0.016-0.013 0.024-0.031-0.017-0.063-0.034-0.093-0.050-0.069-0.037-0.136-0.073-0.205-0.111-0.024-0.013-0.098-0.053-0.138-0.219-0.070-0.29 0.027-0.725 0.226-1.019 0.509-0.658 1.335-1.037 2.271-1.040 1.771 0.086 3.364 1.415 3.969 3.311 0.446 1.59 0.261 3.318-0.502 4.811-0.069 0.075-0.14 0.149-0.212 0.222-1.724 1.724-4.106 2.4-6.346 2.027zM23.455 17.499c-0.040-0.477-0.124-0.951-0.255-1.415-0.002-0.006-0.003-0.011-0.005-0.017-0.743-2.344-2.747-3.987-4.985-4.089-0.008-0-0.017-0.001-0.025-0.001-1.292 0-2.447 0.541-3.168 1.484-0.005 0.007-0.010 0.014-0.015 0.021-0.387 0.559-0.543 1.311-0.398 1.914 0.101 0.422 0.339 0.745 0.685 0.931 0.068 0.037 0.138 0.075 0.209 0.113 0.014 0.008 0.028 0.015 0.042 0.023-0.385 0.508-0.711 0.587-1.234 0.31-1.011-0.565-1.485-1.92-1.1-3.159 0.435-1.449 1.493-2.545 2.979-3.086 1.615-0.588 3.474-0.447 4.97 0.353 0.092 0.083 0.183 0.17 0.272 0.259 1.374 1.374 2.13 3.2 2.13 5.143-0 0.412-0.035 0.819-0.101 1.217zM26.303 11.218c-1.481-0-2.926-0.514-3.966-1.554-1.89-1.891-2.042-5.118-0.531-7.467l0.067 0.269c0.191 0.763 0.784 1.356 1.547 1.547l0.773 0.193c0.268 0.067 0.477 0.275 0.544 0.544l0.193 0.773c0.191 0.763 0.784 1.356 1.547 1.547l0.773 0.193c0.268 0.067 0.477 0.275 0.544 0.544l0.193 0.774c0.191 0.763 0.784 1.356 1.547 1.547l0.27 0.067c-1.057 0.679-2.291 1.023-3.501 1.023z"></path>
</svg>
